<mxfile host="app.diagrams.net" modified="2022-06-12T16:01:30.590Z" agent="5.0 (Windows NT 10.0; Win64; x64) AppleWebKit/537.36 (KHTML, like Gecko) Chrome/102.0.5005.63 Safari/537.36" etag="nJyxElTJXZpK1x6Ly4eW" version="20.0.0" type="github">
  <diagram id="r0VlJPw6956TLr_GAv3E" name="Page-1">
    <mxGraphModel dx="876" dy="547" grid="1" gridSize="10" guides="1" tooltips="1" connect="1" arrows="1" fold="1" page="1" pageScale="1" pageWidth="850" pageHeight="1100" math="0" shadow="0">
      <root>
        <mxCell id="0" />
        <mxCell id="1" parent="0" />
        <mxCell id="qMCWfeq0LgxDMCg4_Ue_-100" value="staff" style="shape=table;startSize=30;container=1;collapsible=1;childLayout=tableLayout;fixedRows=1;rowLines=0;fontStyle=1;align=center;resizeLast=1;" vertex="1" parent="1">
          <mxGeometry x="40" y="95" width="260" height="200" as="geometry">
            <mxRectangle x="180" y="100" width="60" height="30" as="alternateBounds" />
          </mxGeometry>
        </mxCell>
        <mxCell id="qMCWfeq0LgxDMCg4_Ue_-101" value="" style="shape=tableRow;horizontal=0;startSize=0;swimlaneHead=0;swimlaneBody=0;fillColor=none;collapsible=0;dropTarget=0;points=[[0,0.5],[1,0.5]];portConstraint=eastwest;top=0;left=0;right=0;bottom=1;" vertex="1" parent="qMCWfeq0LgxDMCg4_Ue_-100">
          <mxGeometry y="30" width="260" height="30" as="geometry" />
        </mxCell>
        <mxCell id="qMCWfeq0LgxDMCg4_Ue_-102" value="PK" style="shape=partialRectangle;connectable=0;fillColor=none;top=0;left=0;bottom=0;right=0;fontStyle=1;overflow=hidden;" vertex="1" parent="qMCWfeq0LgxDMCg4_Ue_-101">
          <mxGeometry width="100" height="30" as="geometry">
            <mxRectangle width="100" height="30" as="alternateBounds" />
          </mxGeometry>
        </mxCell>
        <mxCell id="qMCWfeq0LgxDMCg4_Ue_-103" value="id     Int autoincrement" style="shape=partialRectangle;connectable=0;fillColor=none;top=0;left=0;bottom=0;right=0;align=left;spacingLeft=6;fontStyle=5;overflow=hidden;" vertex="1" parent="qMCWfeq0LgxDMCg4_Ue_-101">
          <mxGeometry x="100" width="160" height="30" as="geometry">
            <mxRectangle width="160" height="30" as="alternateBounds" />
          </mxGeometry>
        </mxCell>
        <mxCell id="qMCWfeq0LgxDMCg4_Ue_-104" value="" style="shape=tableRow;horizontal=0;startSize=0;swimlaneHead=0;swimlaneBody=0;fillColor=none;collapsible=0;dropTarget=0;points=[[0,0.5],[1,0.5]];portConstraint=eastwest;top=0;left=0;right=0;bottom=0;" vertex="1" parent="qMCWfeq0LgxDMCg4_Ue_-100">
          <mxGeometry y="60" width="260" height="30" as="geometry" />
        </mxCell>
        <mxCell id="qMCWfeq0LgxDMCg4_Ue_-105" value="varchar" style="shape=partialRectangle;connectable=0;fillColor=none;top=0;left=0;bottom=0;right=0;editable=1;overflow=hidden;" vertex="1" parent="qMCWfeq0LgxDMCg4_Ue_-104">
          <mxGeometry width="100" height="30" as="geometry">
            <mxRectangle width="100" height="30" as="alternateBounds" />
          </mxGeometry>
        </mxCell>
        <mxCell id="qMCWfeq0LgxDMCg4_Ue_-106" value="first_name varchar(20)" style="shape=partialRectangle;connectable=0;fillColor=none;top=0;left=0;bottom=0;right=0;align=left;spacingLeft=6;overflow=hidden;" vertex="1" parent="qMCWfeq0LgxDMCg4_Ue_-104">
          <mxGeometry x="100" width="160" height="30" as="geometry">
            <mxRectangle width="160" height="30" as="alternateBounds" />
          </mxGeometry>
        </mxCell>
        <mxCell id="qMCWfeq0LgxDMCg4_Ue_-107" value="" style="shape=tableRow;horizontal=0;startSize=0;swimlaneHead=0;swimlaneBody=0;fillColor=none;collapsible=0;dropTarget=0;points=[[0,0.5],[1,0.5]];portConstraint=eastwest;top=0;left=0;right=0;bottom=0;" vertex="1" parent="qMCWfeq0LgxDMCg4_Ue_-100">
          <mxGeometry y="90" width="260" height="30" as="geometry" />
        </mxCell>
        <mxCell id="qMCWfeq0LgxDMCg4_Ue_-108" value="varchar" style="shape=partialRectangle;connectable=0;fillColor=none;top=0;left=0;bottom=0;right=0;editable=1;overflow=hidden;" vertex="1" parent="qMCWfeq0LgxDMCg4_Ue_-107">
          <mxGeometry width="100" height="30" as="geometry">
            <mxRectangle width="100" height="30" as="alternateBounds" />
          </mxGeometry>
        </mxCell>
        <mxCell id="qMCWfeq0LgxDMCg4_Ue_-109" value="Last_name varchar(20)" style="shape=partialRectangle;connectable=0;fillColor=none;top=0;left=0;bottom=0;right=0;align=left;spacingLeft=6;overflow=hidden;" vertex="1" parent="qMCWfeq0LgxDMCg4_Ue_-107">
          <mxGeometry x="100" width="160" height="30" as="geometry">
            <mxRectangle width="160" height="30" as="alternateBounds" />
          </mxGeometry>
        </mxCell>
        <mxCell id="qMCWfeq0LgxDMCg4_Ue_-110" value="" style="shape=tableRow;horizontal=0;startSize=0;swimlaneHead=0;swimlaneBody=0;fillColor=none;collapsible=0;dropTarget=0;points=[[0,0.5],[1,0.5]];portConstraint=eastwest;top=0;left=0;right=0;bottom=0;" vertex="1" parent="qMCWfeq0LgxDMCg4_Ue_-100">
          <mxGeometry y="120" width="260" height="30" as="geometry" />
        </mxCell>
        <mxCell id="qMCWfeq0LgxDMCg4_Ue_-111" value="varchar" style="shape=partialRectangle;connectable=0;fillColor=none;top=0;left=0;bottom=0;right=0;editable=1;overflow=hidden;" vertex="1" parent="qMCWfeq0LgxDMCg4_Ue_-110">
          <mxGeometry width="100" height="30" as="geometry">
            <mxRectangle width="100" height="30" as="alternateBounds" />
          </mxGeometry>
        </mxCell>
        <mxCell id="qMCWfeq0LgxDMCg4_Ue_-112" value="username varchar(20)" style="shape=partialRectangle;connectable=0;fillColor=none;top=0;left=0;bottom=0;right=0;align=left;spacingLeft=6;overflow=hidden;" vertex="1" parent="qMCWfeq0LgxDMCg4_Ue_-110">
          <mxGeometry x="100" width="160" height="30" as="geometry">
            <mxRectangle width="160" height="30" as="alternateBounds" />
          </mxGeometry>
        </mxCell>
        <mxCell id="qMCWfeq0LgxDMCg4_Ue_-117" value="" style="shape=tableRow;horizontal=0;startSize=0;swimlaneHead=0;swimlaneBody=0;fillColor=none;collapsible=0;dropTarget=0;points=[[0,0.5],[1,0.5]];portConstraint=eastwest;top=0;left=0;right=0;bottom=0;" vertex="1" parent="qMCWfeq0LgxDMCg4_Ue_-100">
          <mxGeometry y="150" width="260" height="20" as="geometry" />
        </mxCell>
        <mxCell id="qMCWfeq0LgxDMCg4_Ue_-118" value="varchar" style="shape=partialRectangle;connectable=0;fillColor=none;top=0;left=0;bottom=0;right=0;editable=1;overflow=hidden;" vertex="1" parent="qMCWfeq0LgxDMCg4_Ue_-117">
          <mxGeometry width="100" height="20" as="geometry">
            <mxRectangle width="100" height="20" as="alternateBounds" />
          </mxGeometry>
        </mxCell>
        <mxCell id="qMCWfeq0LgxDMCg4_Ue_-119" value="password varchar(15)" style="shape=partialRectangle;connectable=0;fillColor=none;top=0;left=0;bottom=0;right=0;align=left;spacingLeft=6;overflow=hidden;" vertex="1" parent="qMCWfeq0LgxDMCg4_Ue_-117">
          <mxGeometry x="100" width="160" height="20" as="geometry">
            <mxRectangle width="160" height="20" as="alternateBounds" />
          </mxGeometry>
        </mxCell>
        <mxCell id="qMCWfeq0LgxDMCg4_Ue_-120" value="" style="shape=tableRow;horizontal=0;startSize=0;swimlaneHead=0;swimlaneBody=0;fillColor=none;collapsible=0;dropTarget=0;points=[[0,0.5],[1,0.5]];portConstraint=eastwest;top=0;left=0;right=0;bottom=0;" vertex="1" parent="qMCWfeq0LgxDMCg4_Ue_-100">
          <mxGeometry y="170" width="260" height="30" as="geometry" />
        </mxCell>
        <mxCell id="qMCWfeq0LgxDMCg4_Ue_-121" value="" style="shape=partialRectangle;connectable=0;fillColor=none;top=0;left=0;bottom=0;right=0;editable=1;overflow=hidden;" vertex="1" parent="qMCWfeq0LgxDMCg4_Ue_-120">
          <mxGeometry width="100" height="30" as="geometry">
            <mxRectangle width="100" height="30" as="alternateBounds" />
          </mxGeometry>
        </mxCell>
        <mxCell id="qMCWfeq0LgxDMCg4_Ue_-122" value="" style="shape=partialRectangle;connectable=0;fillColor=none;top=0;left=0;bottom=0;right=0;align=left;spacingLeft=6;overflow=hidden;" vertex="1" parent="qMCWfeq0LgxDMCg4_Ue_-120">
          <mxGeometry x="100" width="160" height="30" as="geometry">
            <mxRectangle width="160" height="30" as="alternateBounds" />
          </mxGeometry>
        </mxCell>
        <mxCell id="qMCWfeq0LgxDMCg4_Ue_-126" value="About" style="shape=table;startSize=30;container=1;collapsible=1;childLayout=tableLayout;fixedRows=1;rowLines=0;fontStyle=1;align=center;resizeLast=1;" vertex="1" parent="1">
          <mxGeometry x="530" y="95" width="290" height="190" as="geometry">
            <mxRectangle x="180" y="100" width="60" height="30" as="alternateBounds" />
          </mxGeometry>
        </mxCell>
        <mxCell id="qMCWfeq0LgxDMCg4_Ue_-127" value="" style="shape=tableRow;horizontal=0;startSize=0;swimlaneHead=0;swimlaneBody=0;fillColor=none;collapsible=0;dropTarget=0;points=[[0,0.5],[1,0.5]];portConstraint=eastwest;top=0;left=0;right=0;bottom=1;" vertex="1" parent="qMCWfeq0LgxDMCg4_Ue_-126">
          <mxGeometry y="30" width="290" height="30" as="geometry" />
        </mxCell>
        <mxCell id="qMCWfeq0LgxDMCg4_Ue_-128" value="PK" style="shape=partialRectangle;connectable=0;fillColor=none;top=0;left=0;bottom=0;right=0;fontStyle=1;overflow=hidden;" vertex="1" parent="qMCWfeq0LgxDMCg4_Ue_-127">
          <mxGeometry width="50" height="30" as="geometry">
            <mxRectangle width="50" height="30" as="alternateBounds" />
          </mxGeometry>
        </mxCell>
        <mxCell id="qMCWfeq0LgxDMCg4_Ue_-129" value="id     Int autoincrement" style="shape=partialRectangle;connectable=0;fillColor=none;top=0;left=0;bottom=0;right=0;align=left;spacingLeft=6;fontStyle=5;overflow=hidden;" vertex="1" parent="qMCWfeq0LgxDMCg4_Ue_-127">
          <mxGeometry x="50" width="240" height="30" as="geometry">
            <mxRectangle width="240" height="30" as="alternateBounds" />
          </mxGeometry>
        </mxCell>
        <mxCell id="qMCWfeq0LgxDMCg4_Ue_-130" value="" style="shape=tableRow;horizontal=0;startSize=0;swimlaneHead=0;swimlaneBody=0;fillColor=none;collapsible=0;dropTarget=0;points=[[0,0.5],[1,0.5]];portConstraint=eastwest;top=0;left=0;right=0;bottom=0;" vertex="1" parent="qMCWfeq0LgxDMCg4_Ue_-126">
          <mxGeometry y="60" width="290" height="30" as="geometry" />
        </mxCell>
        <mxCell id="qMCWfeq0LgxDMCg4_Ue_-131" value="var" style="shape=partialRectangle;connectable=0;fillColor=none;top=0;left=0;bottom=0;right=0;editable=1;overflow=hidden;" vertex="1" parent="qMCWfeq0LgxDMCg4_Ue_-130">
          <mxGeometry width="50" height="30" as="geometry">
            <mxRectangle width="50" height="30" as="alternateBounds" />
          </mxGeometry>
        </mxCell>
        <mxCell id="qMCWfeq0LgxDMCg4_Ue_-132" value="first_name varchar(20)" style="shape=partialRectangle;connectable=0;fillColor=none;top=0;left=0;bottom=0;right=0;align=left;spacingLeft=6;overflow=hidden;" vertex="1" parent="qMCWfeq0LgxDMCg4_Ue_-130">
          <mxGeometry x="50" width="240" height="30" as="geometry">
            <mxRectangle width="240" height="30" as="alternateBounds" />
          </mxGeometry>
        </mxCell>
        <mxCell id="qMCWfeq0LgxDMCg4_Ue_-133" value="" style="shape=tableRow;horizontal=0;startSize=0;swimlaneHead=0;swimlaneBody=0;fillColor=none;collapsible=0;dropTarget=0;points=[[0,0.5],[1,0.5]];portConstraint=eastwest;top=0;left=0;right=0;bottom=0;" vertex="1" parent="qMCWfeq0LgxDMCg4_Ue_-126">
          <mxGeometry y="90" width="290" height="30" as="geometry" />
        </mxCell>
        <mxCell id="qMCWfeq0LgxDMCg4_Ue_-134" value="" style="shape=partialRectangle;connectable=0;fillColor=none;top=0;left=0;bottom=0;right=0;editable=1;overflow=hidden;" vertex="1" parent="qMCWfeq0LgxDMCg4_Ue_-133">
          <mxGeometry width="50" height="30" as="geometry">
            <mxRectangle width="50" height="30" as="alternateBounds" />
          </mxGeometry>
        </mxCell>
        <mxCell id="qMCWfeq0LgxDMCg4_Ue_-135" value="Last_name varchar(20)" style="shape=partialRectangle;connectable=0;fillColor=none;top=0;left=0;bottom=0;right=0;align=left;spacingLeft=6;overflow=hidden;" vertex="1" parent="qMCWfeq0LgxDMCg4_Ue_-133">
          <mxGeometry x="50" width="240" height="30" as="geometry">
            <mxRectangle width="240" height="30" as="alternateBounds" />
          </mxGeometry>
        </mxCell>
        <mxCell id="qMCWfeq0LgxDMCg4_Ue_-136" value="" style="shape=tableRow;horizontal=0;startSize=0;swimlaneHead=0;swimlaneBody=0;fillColor=none;collapsible=0;dropTarget=0;points=[[0,0.5],[1,0.5]];portConstraint=eastwest;top=0;left=0;right=0;bottom=0;" vertex="1" parent="qMCWfeq0LgxDMCg4_Ue_-126">
          <mxGeometry y="120" width="290" height="30" as="geometry" />
        </mxCell>
        <mxCell id="qMCWfeq0LgxDMCg4_Ue_-137" value="" style="shape=partialRectangle;connectable=0;fillColor=none;top=0;left=0;bottom=0;right=0;editable=1;overflow=hidden;" vertex="1" parent="qMCWfeq0LgxDMCg4_Ue_-136">
          <mxGeometry width="50" height="30" as="geometry">
            <mxRectangle width="50" height="30" as="alternateBounds" />
          </mxGeometry>
        </mxCell>
        <mxCell id="qMCWfeq0LgxDMCg4_Ue_-138" value="biography" style="shape=partialRectangle;connectable=0;fillColor=none;top=0;left=0;bottom=0;right=0;align=left;spacingLeft=6;overflow=hidden;" vertex="1" parent="qMCWfeq0LgxDMCg4_Ue_-136">
          <mxGeometry x="50" width="240" height="30" as="geometry">
            <mxRectangle width="240" height="30" as="alternateBounds" />
          </mxGeometry>
        </mxCell>
        <mxCell id="qMCWfeq0LgxDMCg4_Ue_-139" value="" style="shape=tableRow;horizontal=0;startSize=0;swimlaneHead=0;swimlaneBody=0;fillColor=none;collapsible=0;dropTarget=0;points=[[0,0.5],[1,0.5]];portConstraint=eastwest;top=0;left=0;right=0;bottom=0;" vertex="1" parent="qMCWfeq0LgxDMCg4_Ue_-126">
          <mxGeometry y="150" width="290" height="20" as="geometry" />
        </mxCell>
        <mxCell id="qMCWfeq0LgxDMCg4_Ue_-140" value="" style="shape=partialRectangle;connectable=0;fillColor=none;top=0;left=0;bottom=0;right=0;editable=1;overflow=hidden;" vertex="1" parent="qMCWfeq0LgxDMCg4_Ue_-139">
          <mxGeometry width="50" height="20" as="geometry">
            <mxRectangle width="50" height="20" as="alternateBounds" />
          </mxGeometry>
        </mxCell>
        <mxCell id="qMCWfeq0LgxDMCg4_Ue_-141" value="image (String?)" style="shape=partialRectangle;connectable=0;fillColor=none;top=0;left=0;bottom=0;right=0;align=left;spacingLeft=6;overflow=hidden;" vertex="1" parent="qMCWfeq0LgxDMCg4_Ue_-139">
          <mxGeometry x="50" width="240" height="20" as="geometry">
            <mxRectangle width="240" height="20" as="alternateBounds" />
          </mxGeometry>
        </mxCell>
        <mxCell id="qMCWfeq0LgxDMCg4_Ue_-142" value="" style="shape=tableRow;horizontal=0;startSize=0;swimlaneHead=0;swimlaneBody=0;fillColor=none;collapsible=0;dropTarget=0;points=[[0,0.5],[1,0.5]];portConstraint=eastwest;top=0;left=0;right=0;bottom=0;" vertex="1" parent="qMCWfeq0LgxDMCg4_Ue_-126">
          <mxGeometry y="170" width="290" height="20" as="geometry" />
        </mxCell>
        <mxCell id="qMCWfeq0LgxDMCg4_Ue_-143" value="" style="shape=partialRectangle;connectable=0;fillColor=none;top=0;left=0;bottom=0;right=0;editable=1;overflow=hidden;" vertex="1" parent="qMCWfeq0LgxDMCg4_Ue_-142">
          <mxGeometry width="50" height="20" as="geometry">
            <mxRectangle width="50" height="20" as="alternateBounds" />
          </mxGeometry>
        </mxCell>
        <mxCell id="qMCWfeq0LgxDMCg4_Ue_-144" value="" style="shape=partialRectangle;connectable=0;fillColor=none;top=0;left=0;bottom=0;right=0;align=left;spacingLeft=6;overflow=hidden;" vertex="1" parent="qMCWfeq0LgxDMCg4_Ue_-142">
          <mxGeometry x="50" width="240" height="20" as="geometry">
            <mxRectangle width="240" height="20" as="alternateBounds" />
          </mxGeometry>
        </mxCell>
        <mxCell id="qMCWfeq0LgxDMCg4_Ue_-145" value="" style="line;strokeWidth=2;direction=south;html=1;rotation=90;" vertex="1" parent="1">
          <mxGeometry x="410" y="30" width="10" height="220" as="geometry" />
        </mxCell>
      </root>
    </mxGraphModel>
  </diagram>
</mxfile>
